<svg width="333" height="148" viewBox="0 0 333 148" fill="none" xmlns="http://www.w3.org/2000/svg">
<path d="M29.6 34L0.600001 53V25.4L33.6 1.99999H62V145H29.6V34ZM151.872 121.8C162.005 121.8 169.405 118 174.072 110.4C178.872 102.8 181.272 91.4667 181.272 76.4V70C181.272 55.4667 178.805 44.3333 173.872 36.6C168.939 28.8667 161.472 25 151.472 25C141.472 25 133.939 28.8 128.872 36.4C123.805 43.8667 121.272 55.0667 121.272 70V76.8C121.272 91.8667 123.872 103.133 129.072 110.6C134.272 118.067 141.872 121.8 151.872 121.8ZM151.072 147.2C141.605 147.2 133.005 145.6 125.272 142.4C117.672 139.2 111.205 134.533 105.872 128.4C100.405 122.4 96.2052 115.067 93.2719 106.4C90.3385 97.7333 88.8719 87.9333 88.8719 77V70.2C88.8719 59.2667 90.4052 49.4667 93.4719 40.8C96.5385 32 100.805 24.6 106.272 18.6C111.739 12.6 118.272 7.99999 125.872 4.79999C133.605 1.59999 142.072 -4.76837e-06 151.272 -4.76837e-06C160.472 -4.76837e-06 168.872 1.53333 176.472 4.6C184.072 7.66666 190.672 12.1333 196.272 18C201.739 24 205.939 31.3333 208.872 40C211.939 48.6667 213.472 58.5333 213.472 69.6V76.2C213.472 87.1333 212.005 97 209.072 105.8C206.272 114.6 202.205 122.067 196.872 128.2C191.405 134.333 184.805 139.067 177.072 142.4C169.339 145.6 160.672 147.2 151.072 147.2ZM260.994 91.6L227.594 40.4H260.794L280.394 71.8L299.594 40.4H329.594L296.194 89.4L332.994 145H299.594L277.594 109.8L254.994 145H225.194L260.994 91.6Z" fill="url(#paint0_linear_1370_34887)"/>
<defs>
<linearGradient id="paint0_linear_1370_34887" x1="165.5" y1="-19" x2="165.5" y2="145.375" gradientUnits="userSpaceOnUse">
<stop stop-color="#F7DFF5"/>
<stop offset="1" stop-color="#F7DFF5" stop-opacity="0"/>
</linearGradient>
</defs>
</svg>
