<svg width="34" height="34" viewBox="0 0 34 34" fill="none" xmlns="http://www.w3.org/2000/svg">
<path d="M12.8862 3.81769H2.39075C1.62266 3.81769 1 4.44035 1 5.20843V15.7039C1 16.472 1.62266 17.0947 2.39075 17.0947H12.8862C13.6543 17.0947 14.277 16.472 14.277 15.7039V5.20843C14.277 4.44035 13.6543 3.81769 12.8862 3.81769Z" stroke="#427F30" stroke-miterlimit="10"/>
<path d="M12.8862 19.7239H2.39075C1.62266 19.7239 1 20.3466 1 21.1147V31.6102C1 32.3783 1.62266 33.0009 2.39075 33.0009H12.8862C13.6543 33.0009 14.277 32.3783 14.277 31.6102V21.1147C14.277 20.3466 13.6543 19.7239 12.8862 19.7239Z" stroke="#427F30" stroke-miterlimit="10"/>
<path d="M28.7915 19.7239H18.296C17.5279 19.7239 16.9053 20.3466 16.9053 21.1147V31.6102C16.9053 32.3783 17.5279 33.0009 18.296 33.0009H28.7915C29.5596 33.0009 30.1823 32.3783 30.1823 31.6102V21.1147C30.1823 20.3466 29.5596 19.7239 28.7915 19.7239Z" stroke="#427F30" stroke-miterlimit="10"/>
<path d="M11.0862 10.4552C11.0862 12.3591 9.54275 13.9026 7.63881 13.9026C5.73486 13.9026 4.19141 12.3591 4.19141 10.4552C4.19141 8.55124 5.73486 7.00778 7.63881 7.00778C9.54275 7.00778 11.0862 8.55124 11.0862 10.4552Z" stroke="#427F30"/>
<path d="M20.934 23.3541H26.0334C26.2693 23.3541 26.4606 23.5454 26.4606 23.7813V28.8807C26.4606 29.1166 26.2693 29.3079 26.0334 29.3079H20.934C20.6981 29.3079 20.5068 29.1166 20.5068 28.8807V23.7813C20.5068 23.5454 20.6981 23.3541 20.934 23.3541Z" stroke="#427F30"/>
<path d="M7.63812 23.5456L10.7003 28.7309H4.57594L7.63812 23.5456Z" stroke="#427F30"/>
<path d="M32.0486 3.89966L21.8702 1.33925C21.1253 1.15187 20.3696 1.60382 20.1822 2.3487L17.6218 12.5271C17.4344 13.272 17.8864 14.0277 18.6312 14.2151L28.8096 16.7755C29.5545 16.9629 30.3103 16.5109 30.4976 15.7661L33.0581 5.58767C33.2454 4.84278 32.7935 4.08704 32.0486 3.89966Z" stroke="#427F30" stroke-miterlimit="10"/>
<path d="M24.583 12.0594L26.092 6.05597" stroke="#427F30" stroke-linecap="round" stroke-linejoin="round"/>
<path d="M22.334 8.30338L28.3397 9.81465" stroke="#427F30" stroke-linecap="round" stroke-linejoin="round"/>
</svg>
