<svg width="28" height="28" viewBox="0 0 28 28" fill="none" xmlns="http://www.w3.org/2000/svg">
<path d="M27.3539 17.28C27.363 17.2866 27.3724 17.2928 27.3819 17.2987C27.4878 17.3857 27.5311 17.54 27.4766 17.6755L26.2212 20.7964C26.1623 20.9429 26.0113 21.023 25.8723 21.0002L25.8723 21.0001L25.8621 20.9987L22.4398 20.5112C22.2671 20.4866 22.094 20.5538 21.9832 20.6885C21.6083 21.1443 21.1983 21.5662 20.7475 21.955C20.6162 22.0682 20.553 22.2414 20.5803 22.4126L21.1067 25.704L21.1068 25.7046C21.1336 25.8711 21.0462 26.017 20.9128 26.074L17.8071 27.3977L17.8066 27.3979C17.6738 27.4547 17.5063 27.4156 17.4063 27.2835L17.4061 27.2832L15.3929 24.625C15.2883 24.4868 15.1195 24.4127 14.9469 24.4291C14.3539 24.4856 13.7664 24.49 13.1785 24.4448C13.0049 24.4315 12.837 24.5094 12.735 24.6504L10.7789 27.3557C10.677 27.487 10.5031 27.532 10.3643 27.4762L7.2442 26.2212C7.24411 26.2211 7.24403 26.2211 7.24395 26.2211C7.105 26.1646 7.01051 26.0109 7.02736 25.8473L7.48758 22.5417C7.51156 22.3695 7.4443 22.1971 7.30996 22.0866C6.85415 21.7117 6.43211 21.3018 6.04331 20.851C5.93009 20.7198 5.75696 20.6565 5.58579 20.6839L2.29403 21.2099L2.2935 21.21C2.12684 21.2368 1.98088 21.1494 1.92383 21.0159L0.599816 17.9105L0.59962 17.91C0.542836 17.7772 0.581821 17.6098 0.713958 17.5099L0.714222 17.5097L3.37254 15.4969C3.51077 15.3923 3.58491 15.2235 3.56846 15.0508C3.51194 14.4578 3.50754 13.8704 3.55263 13.2826C3.56587 13.1099 3.48885 12.9427 3.34905 12.8406L0.646491 10.8662L0.646563 10.8661L0.637514 10.8598C0.51787 10.7764 0.465979 10.6118 0.523628 10.4685L1.77907 7.34756C1.83797 7.20115 1.98899 7.12102 2.12798 7.14375L2.12794 7.14395L2.14193 7.14583L5.46063 7.59284C5.63221 7.61595 5.80353 7.54865 5.91352 7.41495C6.2884 6.95922 6.69837 6.53726 7.14913 6.14853C7.28043 6.0353 7.3437 5.86213 7.31632 5.69093L6.78996 2.39946L6.78987 2.39893C6.76306 2.23243 6.85041 2.0866 6.98376 2.02953C6.98381 2.02951 6.98385 2.02949 6.9839 2.02947L10.0896 0.705814L10.09 0.705618C10.2229 0.648833 10.3904 0.687844 10.4904 0.820023L10.4906 0.820287L12.5037 3.47848C12.6084 3.61667 12.7772 3.69079 12.9497 3.67436C13.5428 3.61788 14.1303 3.61353 14.7182 3.65865C14.8932 3.67208 15.0624 3.59282 15.164 3.4498L17.1592 0.64296C17.2613 0.51269 17.4345 0.468073 17.5729 0.523744L17.5732 0.523892L20.693 1.77589C20.6932 1.77598 20.6934 1.77607 20.6937 1.77617C20.8319 1.8326 20.926 1.98532 20.91 2.14817L20.4068 5.55477C20.3812 5.7283 20.4484 5.90258 20.5838 6.014C21.0396 6.38888 21.4617 6.79884 21.8505 7.24959C21.9637 7.38085 22.1368 7.4441 22.308 7.41675L25.5998 6.89068L25.6003 6.89059C25.7668 6.8638 25.9126 6.95106 25.9698 7.08422C25.9698 7.08423 25.9698 7.08424 25.9698 7.08425C25.9698 7.0844 25.9699 7.08454 25.97 7.08468L27.294 10.1901L27.2942 10.1906C27.351 10.3234 27.312 10.4908 27.1798 10.5907L27.1796 10.5909L24.5213 12.6037C24.383 12.7084 24.3089 12.8772 24.3253 13.0498C24.3819 13.6428 24.3863 14.2302 24.3412 14.818C24.3278 14.992 24.4061 15.1604 24.5478 15.2622L27.3539 17.28ZM12.1926 18.4104L12.1928 18.4105C14.6032 19.3781 17.3439 18.2116 18.3119 15.8003C19.2796 13.39 18.1126 10.6495 15.701 9.68147C13.2902 8.71368 10.5499 9.88366 9.58197 12.2915L9.58189 12.2917C8.61411 14.7024 9.78453 17.4425 12.1926 18.4104Z" stroke="#0D48A6" stroke-linejoin="round"/>
</svg>
